<?xml version="1.0" encoding="UTF-8"?>
<svg id="Layer_1" data-name="Layer 1" xmlns="http://www.w3.org/2000/svg" viewBox="0 0 160 160">
  <path d="M111.4,64.74c-5.98,0-11.05,1.84-14.57,5.22-4.06-3.3-9.43-5.22-15.49-5.22-7.06,0-13.12,2.53-17.33,6.83-4.14-3.6-9.74-5.68-16.18-5.68h-1.53l-3.68,13.5h4.14c6.21,0,10.66,3.84,10.66,9.51,0,4.91-3.53,9.05-9.05,9.05-4.99,0-9.2-3.37-9.2-9.74v-39.88h-14.11v40.58c0,13.58,9.89,22.78,23.16,22.78,6.6,0,12.35-2.22,16.57-6.06,4.14,3.84,9.89,6.06,16.57,6.06,3.45,0,6.6-.61,9.51-1.76,7.98-3.07,13.42-10.12,14.19-19.18v-5.37c0-4.6,2.38-6.9,6.37-6.9s6.21,2.3,6.21,6.9v25.24h14.19v-25.24c0-12.81-8.21-20.63-20.4-20.63ZM81.33,97.95c-5.91,0-9.59-4.45-9.59-9.74s3.68-9.74,9.59-9.74,9.51,4.53,9.51,9.74-3.68,9.74-9.51,9.74Z"/>
  <path d="M134.51,110.67v-1.45c0-1.29.79-2.12,1.99-2.12s1.97.83,1.97,2.04v.09l-.88.24v-.24c0-.7-.43-1.16-1.11-1.16s-1.1.46-1.1,1.16v.5h3.09v.94h-3.97Z"/>
  <path d="M134.51,104.32v-2.63h.88v1.69h.69v-1.6h.82v1.6h.7v-1.8l.88.23v2.52h-3.97Z"/>
  <path d="M137.6,98.91v-.61c0-.11,0-.87-.62-.87-.26,0-.49.12-.9.56-.53.56-.92.87-1.56.79v-1.05c.39.09.57-.07.99-.5.53-.55.97-.79,1.45-.79.96,0,1.53.71,1.53,1.87v.37l-.88.23Z"/>
  <path d="M134.51,93.65v-.94h3.97v.94h-3.97Z"/>
  <path d="M136.5,89.91c-1.16,0-1.98-.92-1.98-2.17v-1.03h.88v.99c0,.71.42,1.24,1.1,1.24s1.11-.53,1.11-1.24v-.09h-1.24v-.94h2.12v1.08c0,1.25-.81,2.17-1.99,2.17Z"/>
  <path d="M138.5,80.57l-2.15,2.29h2.13v.92h-3.98v-.3l2.17-2.29h-2.16v-.92h3.99v.3Z"/>
</svg>