<?xml version="1.0" encoding="UTF-8"?>
<svg id="Layer_1" xmlns="http://www.w3.org/2000/svg" version="1.1" viewBox="0 0 106.77 63.36">
  <!-- Generator: Adobe Illustrator 30.0.0, SVG Export Plug-In . SVG Version: 2.1.1 Build 123)  -->
  <defs>
    <style>
      .st0 {
        fill: #fff;
      }
    </style>
  </defs>
  <path d="M-182.88-216.78c-1.31,0-2.45-.28-3.44-.83-.99-.56-1.79-1.38-2.42-2.48s-1.09-2.44-1.4-4.02h-.42l.04,6.75h-5.17v-29.22h6v6.5c0,.75-.04,1.55-.1,2.4-.07.85-.17,1.73-.31,2.65s-.29,1.86-.46,2.83h.54c.28-1.69.74-3.11,1.38-4.23.64-1.13,1.46-1.97,2.46-2.54s2.17-.85,3.5-.85c1.69,0,3.17.44,4.42,1.31s2.22,2.15,2.92,3.83c.69,1.68,1.04,3.76,1.04,6.23s-.37,4.74-1.1,6.46c-.74,1.72-1.75,3.02-3.04,3.9s-2.77,1.31-4.44,1.31ZM-184.92-221.66c.94,0,1.75-.28,2.42-.83.67-.56,1.17-1.33,1.52-2.31.35-.99.52-2.1.52-3.36s-.17-2.38-.5-3.38-.83-1.8-1.48-2.4-1.47-.9-2.44-.9c-.56,0-1.08.11-1.58.33s-.94.53-1.33.92-.73.85-1.02,1.38-.51,1.11-.67,1.75c-.15.64-.23,1.31-.23,2v.42c0,.86.11,1.68.33,2.46s.54,1.46.96,2.04c.42.58.92,1.04,1.52,1.38.6.33,1.26.5,1.98.5Z"/>
  <path d="M-148.52-217.36v-21.88h5.08l-.13,8.46h.46c.22-2.03.64-3.71,1.25-5.04.61-1.33,1.43-2.33,2.46-3s2.31-1,3.83-1c2.45,0,4.29.83,5.52,2.5s1.85,4.21,1.85,7.63v12.34h-6v-11.63c0-1.95-.29-3.38-.85-4.29-.57-.92-1.45-1.38-2.65-1.38-1,0-1.86.33-2.58,1s-1.28,1.68-1.67,3.04-.58,3.08-.58,5.17v8.09h-6,.01Z"/>
  <path d="M-111.72-216.78c-1.31,0-2.45-.28-3.44-.83-.99-.56-1.79-1.38-2.42-2.48s-1.09-2.44-1.4-4.02h-.42l.04,6.75h-5.17v-29.22h6v6.5c0,.75-.03,1.55-.1,2.4s-.17,1.73-.31,2.65-.29,1.86-.46,2.83h.54c.28-1.69.74-3.11,1.38-4.23.64-1.13,1.46-1.97,2.46-2.54s2.17-.85,3.5-.85c1.69,0,3.17.44,4.42,1.31,1.25.88,2.22,2.15,2.92,3.83.69,1.68,1.04,3.76,1.04,6.23s-.37,4.74-1.1,6.46c-.74,1.72-1.75,3.02-3.04,3.9-1.29.88-2.77,1.31-4.44,1.31ZM-113.76-221.66c.94,0,1.75-.28,2.42-.83.67-.56,1.17-1.33,1.52-2.31.35-.99.52-2.1.52-3.36s-.17-2.38-.5-3.38-.83-1.8-1.48-2.4-1.47-.9-2.44-.9c-.56,0-1.08.11-1.58.33s-.94.53-1.33.92-.73.85-1.02,1.38-.51,1.11-.67,1.75c-.15.64-.23,1.31-.23,2v.42c0,.86.11,1.68.33,2.46s.54,1.46.96,2.04.92,1.04,1.52,1.38c.6.33,1.26.5,1.98.5h0Z"/>
  <path d="M-77.91-217.36v-21.88h5.08l-.13,8.46h.46c.22-2.03.64-3.71,1.25-5.04s1.43-2.33,2.46-3c1.03-.67,2.31-1,3.83-1,2.44,0,4.29.83,5.52,2.5,1.24,1.67,1.85,4.21,1.85,7.63v12.34h-6v-11.63c0-1.95-.28-3.38-.85-4.29-.57-.92-1.45-1.38-2.65-1.38-1,0-1.86.33-2.58,1s-1.28,1.68-1.67,3.04-.58,3.08-.58,5.17v8.09h-6,0Z"/>
  <path d="M-160.96-229.58l2.72-4.9c.86-1.78,3.33-4.08,5.05-1.86s-.93,3.91-2.56,4.9l-4.55,2.52c2.4-.6,5.13-1.82,7.62-1.91,3.4-.13,3.77,4.91-.32,4.68-2.41-.14-4.69-1.21-6.99-1.79-.11-.03-.36-.16-.42-.02,2.17,1.2,5.29,2.42,7.03,4.21s0,4.74-2.42,3.88c-1.16-.41-1.94-1.98-2.64-2.93l-2.53-4.55c.58,2.41,1.83,5.13,1.91,7.62.11,3.51-4.89,3.7-4.68-.21.12-2.28,1.13-4.82,1.78-7,.03-.11.18-.34.03-.41-1.18,2.08-2.24,4.73-3.83,6.52-1.04,1.17-2.52,1.72-3.77.45-1.69-1.72.1-3.72,1.7-4.62l5.06-2.9c-2.36.5-5.75,2.12-8.15,1.77-2.25-.33-2.59-3.47-.59-4.41,1.11-.52,3.31.06,4.52.34,1.36.32,2.69.88,4.01,1.21.11.03.36.16.42.02-1.54-.77-3.11-1.52-4.56-2.45-.85-.54-2.57-1.61-2.92-2.54-.72-1.92.9-3.62,2.87-3.11,1.25.32,2.16,2.27,2.9,3.22l2.37,4.37c-.46-1.75-1.13-3.45-1.52-5.23-.2-.94-.53-2.32-.37-3.26.44-2.63,4.76-2.62,4.65.85-.08,2.45-1.31,5.15-1.87,7.52l.05.02Z"/>
  <g>
    <path d="M-80.76-225.63c-1.03-1.93-4.13-2.57-6.14-2.56.02-.15.47-.18.6-.19,1.27-.18,2.44-.27,3.63-.85,5.49-2.68.04-10.31-4.61-9.95-2.87.23-3.9,3.89-3.89,6.3-.34-.14-.18-.6-.23-.9-.2-1.24-.46-2.49-1.12-3.57-3.16-5.26-11.59,1.96-9.28,6.4,1.03,1.98,4.12,2.49,6.14,2.66l-2.43.39c-10.86,2.51,2.91,16.67,6.16,7.45.4-1.12.51-2.3.65-3.47l.41,2.63c2.2,8.9,12.71.55,10.1-4.34h.01ZM-88.26-224.07c-2.14-.72-4.3-.65-6.38.16l-2.26,1.25c2.16-2.82,2.53-6.42.98-9.63-.11-.22-.93-1.43-.86-1.51l1.74,1.01c3.15,1.39,6.68.95,9.39-1.13.08.08-.6.96-.7,1.15-1.88,3.38-1.52,7.01.7,10.12l-2.62-1.41h.01Z"/>
    <path d="M-90.91-226.06c-3.04.4-3.51-4.02-.71-4.45,3.01-.46,3.52,4.07.71,4.45Z"/>
  </g>
  <g>
    <path d="M105.43-220.37c-4.92-9.22-19.74-12.28-29.34-12.23.1-.72,2.25-.86,2.87-.91,6.07-.86,11.66-1.29,17.35-4.06,26.24-12.81.19-49.27-22.03-47.55-13.72,1.1-18.64,18.59-18.59,30.11-1.62-.67-.86-2.87-1.1-4.3-.96-5.93-2.2-11.9-5.35-17.06-15.1-25.14-55.39,9.37-44.35,30.59,4.92,9.46,19.69,11.9,29.34,12.71l-11.61,1.86c-51.9,12,13.91,79.67,29.44,35.6,1.91-5.35,2.44-10.99,3.11-16.58l1.96,12.57c10.51,42.53,60.74,2.63,48.27-20.74h.05ZM69.59-212.92c-10.23-3.44-20.55-3.11-30.49.76l-10.8,5.97c10.32-13.48,12.09-30.68,4.68-46.02-.53-1.05-4.44-6.83-4.11-7.22l8.32,4.83c15.05,6.64,31.92,4.54,44.88-5.4.38.38-2.87,4.59-3.35,5.5-8.98,16.15-7.26,33.5,3.35,48.37l-12.52-6.74.05-.05Z"/>
    <path d="M56.92-222.43c-14.53,1.91-16.77-19.21-3.39-21.27,14.39-2.2,16.82,19.45,3.39,21.27Z"/>
  </g>
  <g>
    <path class="st0" d="M283.64-220.37c-4.92-9.22-19.74-12.28-29.34-12.23.1-.72,2.25-.86,2.87-.91,6.07-.86,11.66-1.29,17.35-4.06,26.24-12.81.19-49.27-22.03-47.55-13.72,1.1-18.64,18.59-18.59,30.11-1.62-.67-.86-2.87-1.1-4.3-.96-5.93-2.2-11.9-5.35-17.06-15.1-25.14-55.39,9.37-44.35,30.59,4.92,9.46,19.69,11.9,29.34,12.71l-11.61,1.86c-51.9,12,13.91,79.67,29.44,35.6,1.91-5.35,2.44-10.99,3.11-16.58l1.96,12.57c10.51,42.53,60.74,2.63,48.27-20.74h.05ZM247.8-212.92c-10.23-3.44-20.55-3.11-30.49.76l-10.8,5.97c10.32-13.48,12.09-30.68,4.68-46.02-.53-1.05-4.44-6.83-4.11-7.22l8.32,4.83c15.05,6.64,31.92,4.54,44.88-5.4.38.38-2.87,4.59-3.35,5.5-8.98,16.15-7.26,33.5,3.35,48.37l-12.52-6.74.05-.05Z"/>
    <path class="st0" d="M235.13-222.43c-14.53,1.91-16.77-19.21-3.39-21.27,14.39-2.2,16.82,19.45,3.39,21.27Z"/>
  </g>
  <path d="M86.37-66.94c-5.98,0-11.05,1.84-14.57,5.22-4.06-3.3-9.43-5.22-15.49-5.22-7.06,0-13.12,2.53-17.33,6.83-4.14-3.6-9.74-5.68-16.18-5.68h-1.53l-3.68,13.5h4.14c6.21,0,10.66,3.84,10.66,9.51,0,4.91-3.53,9.05-9.05,9.05-4.99,0-9.2-3.37-9.2-9.74v-39.88H0v40.58c0,13.58,9.89,22.78,23.16,22.78,6.6,0,12.35-2.22,16.57-6.06,4.14,3.84,9.89,6.06,16.57,6.06,3.45,0,6.6-.61,9.51-1.76,7.98-3.07,13.42-10.12,14.19-19.18v-5.37c0-4.6,2.38-6.9,6.37-6.9s6.21,2.3,6.21,6.9v25.24h14.19v-25.24c0-12.81-8.21-20.63-20.4-20.63ZM56.3-33.73c-5.91,0-9.59-4.45-9.59-9.74s3.68-9.74,9.59-9.74,9.51,4.53,9.51,9.74-3.68,9.74-9.51,9.74Z"/>
  <path class="st0" d="M86.37,16.41c-5.98,0-11.05,1.84-14.57,5.22-4.06-3.3-9.43-5.22-15.49-5.22-7.06,0-13.12,2.53-17.33,6.83-4.14-3.6-9.74-5.68-16.18-5.68h-1.53l-3.68,13.5h4.14c6.21,0,10.66,3.84,10.66,9.51,0,4.91-3.53,9.05-9.05,9.05-4.99,0-9.2-3.37-9.2-9.74V0H0v40.58c0,13.58,9.89,22.78,23.16,22.78,6.6,0,12.35-2.22,16.57-6.06,4.14,3.84,9.89,6.06,16.57,6.06,3.45,0,6.6-.61,9.51-1.76,7.98-3.07,13.42-10.12,14.19-19.18v-5.37c0-4.6,2.38-6.9,6.37-6.9s6.21,2.3,6.21,6.9v25.24h14.19v-25.24c0-12.81-8.21-20.63-20.4-20.63ZM56.3,49.63c-5.91,0-9.59-4.45-9.59-9.74s3.68-9.74,9.59-9.74,9.51,4.53,9.51,9.74-3.68,9.74-9.51,9.74Z"/>
  <path class="st0" d="M266.37-66.94c-5.98,0-11.05,1.84-14.57,5.22-4.06-3.3-9.43-5.22-15.49-5.22-7.06,0-13.12,2.53-17.33,6.83-4.14-3.6-9.74-5.68-16.18-5.68h-1.53l-3.68,13.5h4.14c6.21,0,10.66,3.84,10.66,9.51,0,4.91-3.53,9.05-9.05,9.05-4.99,0-9.2-3.37-9.2-9.74v-39.88h-14.11v40.58c0,13.58,9.89,22.78,23.16,22.78,6.6,0,12.35-2.22,16.57-6.06,4.14,3.84,9.89,6.06,16.57,6.06,3.45,0,6.6-.61,9.51-1.76,7.98-3.07,13.42-10.12,14.19-19.18v-5.37c0-4.6,2.38-6.9,6.37-6.9s6.21,2.3,6.21,6.9v25.24h14.19v-25.24c0-12.81-8.21-20.63-20.4-20.63ZM236.3-33.73c-5.91,0-9.59-4.45-9.59-9.74s3.68-9.74,9.59-9.74,9.51,4.53,9.51,9.74-3.68,9.74-9.51,9.74Z"/>
  <path d="M-93.74-66.94c-5.98,0-11.05,1.84-14.57,5.22-4.06-3.3-9.43-5.22-15.49-5.22-7.06,0-13.12,2.53-17.33,6.83-4.14-3.6-9.74-5.68-16.18-5.68h-1.53l-3.68,13.5h4.14c6.21,0,10.66,3.84,10.66,9.51,0,4.91-3.53,9.05-9.05,9.05-4.99,0-9.2-3.37-9.2-9.74v-39.88h-14.11v40.58c0,13.58,9.89,22.78,23.16,22.78,6.6,0,12.35-2.22,16.57-6.06,4.14,3.84,9.89,6.06,16.57,6.06,3.45,0,6.6-.61,9.51-1.76,7.98-3.07,13.42-10.12,14.19-19.18v-5.37c0-4.6,2.38-6.9,6.37-6.9s6.21,2.3,6.21,6.9v26.31h14.19v-26.31c0-12.81-8.21-20.63-20.4-20.63ZM-123.81-33.73c-5.91,0-9.59-4.45-9.59-9.74s3.68-9.74,9.59-9.74,9.51,4.53,9.51,9.74-3.68,9.74-9.51,9.74Z"/>
  <path d="M444.79-246.94c-5.98,0-11.05,1.84-14.57,5.22-4.06-3.3-9.43-5.22-15.49-5.22-7.06,0-13.12,2.53-17.33,6.83-4.14-3.6-9.74-5.68-16.18-5.68h-1.53l-3.68,13.5h4.14c6.21,0,10.66,3.84,10.66,9.51,0,4.91-3.53,9.05-9.05,9.05-4.99,0-9.2-3.37-9.2-9.74v-39.88h-14.11v40.58c0,13.58,9.89,22.78,23.16,22.78,6.6,0,12.35-2.22,16.57-6.06,4.14,3.84,9.89,6.06,16.57,6.06,3.45,0,6.6-.61,9.51-1.76,7.98-3.07,13.42-10.12,14.19-19.18v-5.37c0-4.6,2.38-6.9,6.37-6.9s6.21,2.3,6.21,6.9v25.24h14.19v-25.24c0-12.81-8.21-20.63-20.4-20.63ZM414.72-213.73c-5.91,0-9.59-4.45-9.59-9.74s3.68-9.74,9.59-9.74,9.51,4.53,9.51,9.74-3.68,9.74-9.51,9.74Z"/>
  <path d="M467.9-201v-1.45c0-1.29.79-2.12,1.99-2.12s1.97.83,1.97,2.04v.09l-.88.24v-.24c0-.7-.43-1.16-1.11-1.16s-1.1.46-1.1,1.16v.5h3.09v.94h-3.97Z"/>
  <path d="M467.9-207.36v-2.63h.88v1.69h.69v-1.6h.82v1.6h.7v-1.8l.88.23v2.52h-3.97Z"/>
  <path d="M470.99-212.77v-.61c0-.11,0-.87-.62-.87-.26,0-.49.12-.9.56-.53.56-.92.87-1.56.79v-1.05c.39.09.57-.07.99-.5.53-.55.97-.79,1.45-.79.96,0,1.53.71,1.53,1.87v.37l-.88.23Z"/>
  <path d="M467.9-218.02v-.94h3.97v.94h-3.97Z"/>
  <path d="M469.88-221.77c-1.16,0-1.98-.92-1.98-2.17v-1.03h.88v.99c0,.71.42,1.24,1.1,1.24s1.11-.53,1.11-1.24v-.09h-1.24v-.94h2.12v1.08c0,1.25-.81,2.17-1.99,2.17Z"/>
  <path d="M471.89-231.11l-2.15,2.29h2.13v.92h-3.98v-.3l2.17-2.29h-2.16v-.92h3.99v.3Z"/>
  <g>
    <path d="M-103.91,36.61v4.64c.06-.77.13-1.55.13-2.39,0-.77-.06-1.55-.13-2.26Z"/>
    <path d="M-95.21,19.46c-5.8,0-10.45,2.32-13.29,6.38-3.48-3.93-8.64-6.38-14.83-6.38-6.9,0-12.51,3.03-15.99,7.74-3.48-4.26-8.96-6.9-15.8-6.9h-3.03l-2.32,7.35h4.77c8.13,0,12.51,5.09,12.77,11.16v.06c0,.32,0,.71.06,1.03-.19,6.58-5.09,10.96-11.09,10.96-6.45,0-11.35-4.39-11.35-12.32V5.07h-7.67v33.67c0,12.12,8,19.54,18.9,19.54,6.32,0,11.8-2.64,15.22-7.09,3.55,4.39,8.96,7.09,15.54,7.09,4.51,0,8.51-1.29,11.67-3.55,4.32-3.03,7.09-7.8,7.74-13.48v-4.77c.06-6,3.48-9.61,8.71-9.61s8.77,3.68,8.77,9.74v20.77h7.74v-20.77c0-10.51-6.64-17.16-16.51-17.16ZM-123.32,50.74c-7.22,0-11.74-5.48-11.74-11.87s4.51-12,11.74-12,11.67,5.55,11.67,12-4.51,11.87-11.67,11.87Z"/>
  </g>
  <g>
    <path d="M-76.92,57.48v-1.7c0-1.51.93-2.49,2.34-2.49s2.32.97,2.32,2.4v.1l-1.03.28v-.29c0-.82-.51-1.36-1.3-1.36s-1.29.54-1.29,1.36v.59h3.62v1.11h-4.66Z"/>
    <path d="M-76.92,51.09v-3.09h1.03v1.98h.8v-1.88h.96v1.88h.83v-2.12l1.03.27v2.95h-4.66Z"/>
    <path d="M-73.29,45.58v-.72c0-.12,0-1.02-.73-1.02-.3,0-.57.14-1.06.65-.63.66-1.08,1.02-1.84.93v-1.23c.45.11.67-.08,1.16-.59.62-.64,1.14-.93,1.7-.93,1.13,0,1.8.83,1.8,2.2v.44l-1.03.27Z"/>
    <path d="M-76.92,40.38v-1.11h4.66v1.11h-4.66Z"/>
    <path d="M-74.6,37.23c-1.36,0-2.32-1.08-2.32-2.54v-1.21h1.03v1.16c0,.84.5,1.46,1.29,1.46s1.3-.62,1.3-1.46v-.11h-1.46v-1.11h2.49v1.27c0,1.47-.96,2.54-2.33,2.54Z"/>
    <path d="M-72.24,27.22l-2.52,2.68h2.5v1.08h-4.67v-.35l2.55-2.68h-2.53v-1.08h4.68v.35Z"/>
  </g>
</svg>