<?xml version="1.0" encoding="UTF-8"?>
<svg id="Layer_1" data-name="Layer 1" xmlns="http://www.w3.org/2000/svg" viewBox="0 0 160 160">
  <path d="M112.98,64.74c-5.98,0-11.05,1.84-14.57,5.22-4.06-3.3-9.43-5.22-15.49-5.22-7.06,0-13.12,2.53-17.33,6.83-4.14-3.6-9.74-5.68-16.18-5.68h-1.53l-3.68,13.5h4.14c6.21,0,10.66,3.84,10.66,9.51,0,4.91-3.53,9.05-9.05,9.05-4.99,0-9.2-3.37-9.2-9.74v-39.88h-14.11v40.58c0,13.58,9.89,22.78,23.16,22.78,6.6,0,12.35-2.22,16.57-6.06,4.14,3.84,9.89,6.06,16.57,6.06,3.45,0,6.6-.61,9.51-1.76,7.98-3.07,13.42-10.12,14.19-19.18v-5.37c0-4.6,2.38-6.9,6.37-6.9s6.21,2.3,6.21,6.9v25.24h14.19v-25.24c0-12.81-8.21-20.63-20.4-20.63ZM82.91,97.95c-5.91,0-9.59-4.45-9.59-9.74s3.68-9.74,9.59-9.74,9.51,4.53,9.51,9.74-3.68,9.74-9.51,9.74Z"/>
</svg>