<?xml version="1.0" encoding="UTF-8"?>
<svg id="Layer_1" xmlns="http://www.w3.org/2000/svg" version="1.1" viewBox="0 0 160 160">
  <!-- Generator: Adobe Illustrator 30.0.0, SVG Export Plug-In . SVG Version: 2.1.1 Build 123)  -->
  <defs>
    <style>
      .st0 {
        fill: #fff;
      }
    </style>
  </defs>
  <path class="st0" d="M13.65,73.94c0-.47,0-1.64.06-2.59.14-3.64.72-4.67,3-5.09.31-.06.89-.19,1.33-.28,1.92-.42,5.73-.44,8.26-.03,2.73.42,3.09.58,4.51,2.06,1.81,1.84,2.25,4.56,1.14,6.62-.28.5-.28.67.06.67.22,0,1.11.53,1.56.94,2.59,2.36,2.78,7.12.33,8.37-.14.08-.42.22-.58.31-.56.36-2.86,1.03-3.67,1.08-.25.03-.56.06-.72.08-.14.03-.67.08-1.17.11s-1.03.08-1.17.11c-.75.11-1.03.17-1.11.22-.19.14-7.65.08-8.18-.05-.56-.14-1.28-.56-1.58-.89-.86-1-1.22-1.7-1.47-2.89-.39-1.7-.39-1.78-.47-5.53-.06-1.31-.08-2.75-.11-3.23ZM22.02,72.25c.19.28.86.53,1.45.56,2.14.03,2.95-1.5,1.11-2.11-1.47-.47-3.25.58-2.56,1.56ZM25.5,79.98c-1.22-.58-3.39.36-2.56,1.11.42.39.78.56,1.22.56.86,0,1.92-.53,1.78-.89-.03-.08,0-.19.06-.25.14-.17.03-.28-.5-.53Z"/>
  <path class="st0" d="M70.17,83.48c-.11-.14-.5-.61-.86-1.03-.36-.42-.78-.86-.89-1-.14-.11-.53-.56-.89-.95-.33-.39-.72-.81-.83-.94-.14-.14-.53-.58-.89-1-.36-.42-.89-1-1.17-1.28l-.53-.53.11,1.2c.56,5.37-.14,7.95-2.14,7.84-.22-.03-.44.03-.58.14-1.03.67-2.61-.61-3.17-2.56-.53-1.97-.97-9.12-.64-10.26.03-.06.06-.81.08-1.64.03-.83.06-1.67.08-1.86.03-.17.08-.61.11-.97.33-3.23,4.5-3.45,6.65-.36.17.22.56.67.83,1,.7.72,1.47,1.61,1.86,2.14.25.33,1,1.25,1.42,1.7.06.06.28.31.5.58.22.25.58.69.81.95.22.25.67.78,1,1.17.31.39.75.89.95,1.11l.39.42-.03-.44c-.03-.25-.08-1.06-.14-1.81-.33-3.47-.14-6.53.44-7.59.33-.58.33-.64-.03-.78-.25-.06-.22-.08.17-.03.25.03.58,0,.72-.06,2-.81,4.09.08,4.59,1.95.14.5.19.89.31,2.25.06.75.06,3.25-.03,4.84-.03,1.14,0,1.89.11,3.14.17,1.73.14,4.37-.06,4.7-.03.03-.08.25-.14.47-.14.92-1.47,1.97-2.75,2.14-.81.14-1.47.11-1.95-.05-1.81-.61-2.31-1.31-3.42-2.59ZM61,85.82c-.14,0-.17.03-.11.03.06.03.17.03.22,0,.06,0,0-.03-.11-.03Z"/>
  <path class="st0" d="M81.41,74.05c0-.47,0-1.64.06-2.59.14-3.64.72-4.67,3-5.09.31-.06.89-.19,1.33-.28,1.92-.42,5.73-.44,8.26-.03,2.73.42,3.09.58,4.51,2.06,1.81,1.84,2.25,4.56,1.14,6.62-.28.5-.28.67.05.67.22,0,1.11.53,1.56.94,2.59,2.36,2.78,7.12.33,8.37-.14.08-.42.22-.58.31-.55.36-2.86,1.03-3.67,1.08-.25.03-.56.06-.72.08-.14.03-.67.08-1.17.11s-1.03.08-1.17.11c-.75.11-1.03.17-1.11.22-.19.14-7.65.08-8.18-.05-.56-.14-1.28-.56-1.58-.89-.86-1-1.22-1.7-1.47-2.89-.39-1.7-.39-1.78-.47-5.53-.06-1.31-.08-2.75-.11-3.23ZM89.78,72.35c.19.28.86.53,1.45.56,2.14.03,2.95-1.5,1.11-2.11-1.47-.47-3.25.58-2.56,1.56ZM93.25,80.08c-1.22-.58-3.39.36-2.56,1.11.42.39.78.56,1.22.56.86,0,1.92-.53,1.78-.89-.03-.08,0-.19.06-.25.14-.17.03-.28-.5-.53Z"/>
  <path class="st0" d="M137.92,83.59c-.11-.14-.5-.61-.86-1.03-.36-.42-.78-.86-.89-1-.14-.11-.53-.56-.89-.95-.34-.39-.72-.81-.84-.94-.14-.14-.53-.58-.89-1-.36-.42-.89-1-1.17-1.28l-.53-.53.11,1.2c.56,5.37-.14,7.95-2.14,7.84-.22-.03-.45.03-.58.14-1.03.67-2.62-.61-3.17-2.56-.53-1.97-.97-9.12-.64-10.26.03-.06.06-.81.08-1.64s.05-1.67.08-1.86c.03-.17.08-.61.11-.97.33-3.23,4.5-3.45,6.65-.36.17.22.56.67.84,1,.7.72,1.47,1.61,1.86,2.14.25.33,1,1.25,1.42,1.7.05.06.28.31.5.58.22.25.58.69.81.95s.67.78,1,1.17c.31.39.75.89.95,1.11l.39.42-.03-.44c-.03-.25-.08-1.06-.14-1.81-.33-3.47-.14-6.53.44-7.59.34-.58.34-.64-.03-.78-.25-.06-.22-.08.17-.03.25.03.58,0,.72-.06,2-.81,4.09.08,4.59,1.95.14.5.19.89.31,2.25.05.75.05,3.25-.03,4.84-.03,1.14,0,1.89.11,3.14.17,1.73.14,4.37-.05,4.7-.03.03-.08.25-.14.47-.14.92-1.47,1.97-2.75,2.14-.81.14-1.47.11-1.95-.05-1.81-.61-2.31-1.31-3.42-2.59ZM128.75,85.92c-.14,0-.17.03-.11.03.06.03.17.03.22,0,.05,0,0-.03-.11-.03Z"/>
  <path class="st0" d="M44.48,66.39c3.43-.28,8.03,1.06,10.04,4.01,4.32,6.33-.89,14.85-8.1,15.49-12.62,1.13-14.19-18.49-1.94-19.5ZM49.61,74.89c.79-.74,1.06-2.24.09-2.97-1.71-1.28-3.34-.08-2.92,1.99.25,1.19,1.91,1.85,2.83.97ZM42.37,71.53c-2.51.25-1.46,4.94,1.36,3.48,1.98-1.02,1.02-3.72-1.36-3.48ZM43.15,77.08c-.58-.59-1.87-.53-2.01.47-.51,3.74,6.89,4.8,8.35,1.37.39-.91.48-2.88-.94-2.77-.82.06-.67.85-1.01,1.35-.11.16-1.14.94-1.33,1.04-.87.48-1.86.19-2.5-.51-.29-.32-.4-.8-.56-.96Z"/>
  <path class="st0" d="M114.87,69.37c.25.14.97-1.11,1.13-1.27.35-.37,1.28-1.2,1.69-1.43,2.24-1.28,3.32.47,2.86,2.61-.22,1.02-.94,1.84-1.22,2.82,1.59-.19,5.32-.27,4.84,2.21-.33,1.72-2.83,2.39-4.28,2.78-.14.19.9.92,1.07,1.1.86.91,2.39,2.79.93,3.85-1.69,1.22-3.23-.12-4.87-.6.22,1.52.27,5.13-2.08,4.67-1.75-.34-2.31-2.41-2.76-3.89-.92,1.12-3.59,3.85-4.9,1.94-1.08-1.57.19-3.31.68-4.83-.62.1-1.26.15-1.89.12-.73-.04-2.47-.4-2.7-1.17-.72-2.37,1.97-3.21,3.69-3.77-.04-.46-.57-.56-.83-.83-.99-1.02-2.66-3.04-.88-4.12,1.68-1.02,3.13.29,4.72.71-.2-1.13-.22-2.41.2-3.5.31-.8.54-1.13,1.46-1.19,1.94-.12,2.63,2.34,3.17,3.78ZM112.01,68.66c-.58.28-.22,2.67.05,3.19.14.27.64.66.96.7.67-.09.46-2.04.33-2.53s-.72-1.66-1.33-1.36ZM117.65,69.14c-.86.3-2.48,2.4-1.62,3.36,1.2.14,2.77-2.26,2.27-3.27-.14-.26-.42-.17-.65-.09ZM110.88,73.86c.23-.5-.82-1.47-1.21-1.74-.7-.5-1.44-.72-2.3-.49-.15.91,1.48,2.3,2.25,2.41.2.03,1.16,0,1.25-.18ZM117.47,74.51c-1.02,1.32,1.5,1.2,2.25,1,1.6-.43,2.21-1.83-.1-1.71-.62.03-1.75.19-2.15.7ZM110.12,76.65c.05-.12.14-.2.07-.35-.31-.76-2.64-.29-3.24.05-.26.15-.75.58-.66.92.16.71,2.6.37,3.15.1.11-.05.64-.61.69-.73ZM119.67,80.1c.44-.58-2.36-3.22-3.3-2.34-.61,1,1.5,2.4,2.29,2.45.34.02.68-.08,1.01-.11ZM109.3,81.99c.67.3,2.49-1.72,2.38-2.35-.02-.09-.51-1-.63-1.04-.34-.12-1.34,1.16-1.51,1.47-.3.54-.61,1.35-.24,1.91ZM115.19,82.91c.27-.36.04-2.54-.15-2.95-.06-.13-.34-.36-.47-.37l-1.01.23c0,.33.02.32.3.39l-.39.42c.19.54.17,1.02.41,1.57.2.45.86,1.31,1.31.71Z"/>
</svg>